<svg width="80" height="80" viewBox="0 0 80 80" fill="none" xmlns="http://www.w3.org/2000/svg">
<path d="M79.9938 39.9969C79.9938 17.9072 62.0866 0 39.9969 0C17.9072 0 0 17.9072 0 39.9969C0 59.9605 14.6263 76.5074 33.7474 79.5079V51.5585H23.5919V39.9969H33.7474V31.1851C33.7474 21.1609 39.7186 15.6238 48.8548 15.6238C53.2308 15.6238 57.808 16.405 57.808 16.405V26.248H52.7645C47.7959 26.248 46.2464 29.3311 46.2464 32.4941V39.9969H57.3393L55.566 51.5585H46.2464V79.5079C65.3675 76.5074 79.9938 59.9605 79.9938 39.9969Z" fill="#FFDB5A"/>
<path fill-rule="evenodd" clip-rule="evenodd" d="M33.7474 79.5075V51.5585H23.5919V39.9968H33.7474V31.185C33.7474 21.1609 39.7186 15.6238 48.8548 15.6238C53.2309 15.6238 57.808 16.405 57.808 16.405V26.248H52.7646C47.7959 26.248 46.2465 29.3312 46.2465 32.494V39.9968H57.3392L55.566 51.5585H46.2465V79.5075C44.21 79.8276 42.1227 79.9939 39.9968 79.9939C37.8711 79.9939 35.7839 79.8276 33.7474 79.5075ZM0.00243731 40.4427L0.00253105 40.4513L0.00251231 40.4491L0.00243731 40.4427ZM0.00176236 40.3746L0.0018936 40.3902L0.00183736 40.3846L0.00176236 40.3746ZM79.992 40.3846V40.3872V40.3799V40.3846ZM0.00119991 40.3096L0.0013499 40.3291L0.0012749 40.3201L0.00119991 40.3096ZM79.9926 40.3201V40.3253V40.3137V40.3201ZM0.00076869 40.246L0.00089993 40.2676L0.000824936 40.2554L0.00076869 40.246ZM79.9929 40.2554V40.2631V40.2494V40.2554ZM0.000431217 40.183L0.000543708 40.2057L0.000468714 40.1909L0.000431217 40.183ZM79.9933 40.1909V40.2001V40.186V40.1909ZM0.000187485 40.1208L0.000281228 40.1431L0.000206234 40.1262L0.000187485 40.1208ZM79.9937 40.1262L79.9935 40.1352L79.9937 40.1232V40.1262ZM5.62456e-05 40.0587L9.37427e-05 40.078L5.62456e-05 40.0615V40.0587ZM79.9937 40.0615V40.0649V40.061V40.0615ZM0 39.9959V39.9968V39.9959ZM39.9968 0H39.9959H39.9968Z" fill="#27282C"/>
</svg>
