<svg width="80" height="80" viewBox="0 0 80 80" fill="none" xmlns="http://www.w3.org/2000/svg">
<circle cx="40" cy="40" r="40" fill="#FFDB5A"/>
<path d="M50.3255 38.7756L55.175 45.4373C56.1684 46.815 54.0994 48.3039 53.1054 46.9442L48.3488 40.406L40.9168 46.5356C40.4417 46.922 39.7654 46.9229 39.2965 46.5379L31.7623 40.4152L26.9172 46.9872L26.9206 46.9906C25.9236 48.3394 23.844 46.8513 24.8611 45.4712L29.7777 38.8006L20.2 31.0144V50.7123C20.2 51.4106 20.772 51.9911 21.4775 51.9911H58.5223C59.2245 51.9911 59.7999 51.4159 59.7999 50.7123V30.9611L50.3255 38.7756Z" fill="#27282C"/>
<path d="M59.3597 28.0088H20.554L40.0953 43.8963L59.3597 28.0088Z" fill="#27282C"/>
</svg>
