<svg width="80" height="80" viewBox="0 0 80 80" fill="none" xmlns="http://www.w3.org/2000/svg">
<path d="M71.3058 31.3613C71.3058 20.9792 60.488 13.1109 47.73 13.1109C38.8151 13.1109 29.5086 17.1508 25.7343 24.7229C16.66 27.0714 8.69434 33.7346 8.69434 42.7795C8.69434 49.1518 12.7012 54.3595 18.1012 57.6508C17.0195 60.8797 15.4669 63.5717 14.7133 64.586C13.9135 65.6659 14.9025 67.1598 16.2094 66.847C20.5546 65.8024 24.769 64.033 28.5928 61.4369C40.3609 63.3519 51.3406 58.882 56.3667 51.7298C58.329 52.6085 60.3993 53.3137 62.5456 53.8293C65.392 54.5149 67.4808 51.2551 65.7802 48.9587C65.2684 48.2532 64.3571 46.664 63.6353 44.8679C68.1516 41.6885 71.3058 36.9524 71.3058 31.3613ZM59.1085 43.2952C59.8588 45.5339 60.6684 47.718 61.8581 49.766C58.195 48.6902 55.6028 47.2993 52.7973 45.3951C37.6926 47.8541 27.9041 39.3392 27.9041 31.3613C27.9041 23.2654 36.9316 16.8609 47.73 16.8609C58.5254 16.8609 67.5558 23.2651 67.5558 31.3613C67.5558 36.9025 63.6056 40.5551 59.1085 43.2952Z" fill="#FFE68C"/>
</svg>
