<svg width="80" height="80" viewBox="0 0 80 80" fill="none" xmlns="http://www.w3.org/2000/svg">
<circle cx="40" cy="40" r="40" fill="#FFDB5A"/>
<path d="M57.8917 55.219C60.281 52.8267 59.7272 50.1793 58.732 49.592C58.0323 49.1791 48.8598 44.0109 48.8598 44.0109C48.1439 43.5626 47.4325 43.7925 47.0037 44.3066C46.9997 44.3038 46.9956 44.3012 46.9916 44.2984L43.613 47.6764C43.1561 48.1306 42.4508 48.2166 41.8999 47.8834C39.9895 46.7225 38.1408 45.2822 36.4292 43.5706C34.7177 41.8591 33.2774 40.0104 32.1165 38.1C31.7833 37.5491 31.8693 36.8438 32.3234 36.3869L35.7015 33.0083C35.6987 33.0043 35.6961 33.0002 35.6933 32.9962C36.1978 32.5755 36.4442 31.8671 35.989 31.1401C35.989 31.1401 30.8208 21.9676 30.4079 21.2679C29.8206 20.2727 27.1732 19.7189 24.7809 22.1082C19.4471 27.446 22.5344 39.1694 31.6811 48.3175C40.8246 57.461 52.5514 60.5553 57.8917 55.219Z" fill="#27282C"/>
</svg>
