<svg width="56" height="56" viewBox="0 0 56 56" fill="none" xmlns="http://www.w3.org/2000/svg">
<path d="M42.2188 24.0625H31.9375V13.7812C31.9375 12.9356 31.2519 12.25 30.4062 12.25H25.5938C24.7481 12.25 24.0625 12.9356 24.0625 13.7812V24.0625H13.7812C12.9356 24.0625 12.25 24.7481 12.25 25.5938V30.4062C12.25 31.2519 12.9356 31.9375 13.7812 31.9375H24.0625V42.2188C24.0625 43.0644 24.7481 43.75 25.5938 43.75H30.4062C31.2519 43.75 31.9375 43.0644 31.9375 42.2188V31.9375H42.2188C43.0644 31.9375 43.75 31.2519 43.75 30.4062V25.5938C43.75 24.7481 43.0644 24.0625 42.2188 24.0625Z" fill="#565D64"/>
</svg>
