<svg width="80" height="80" viewBox="0 0 80 80" fill="none" xmlns="http://www.w3.org/2000/svg">
<path fill-rule="evenodd" clip-rule="evenodd" d="M8.07109 64.0819C3.00535 57.3797 0 49.0366 0 39.9968C0 17.922 17.922 0 39.9968 0C62.0717 0 79.9938 17.922 79.9938 39.9968C79.9938 62.0717 62.0717 79.9938 39.9968 79.9938C31.0389 79.9938 22.7648 77.0424 16.0948 72.0602L0 79.9938L8.07109 64.0819ZM36.9535 37.0975C36.9535 47.1466 32.0341 52.8431 23.3072 54.6539V49.4545C29.3805 47.5337 30.996 42.5927 30.7133 39.6987H23.0656V26.5399H36.9535V37.0975ZM56.9282 37.0975V26.5399H43.0401V39.6987H50.6936C50.9521 43.7475 48.7449 47.6968 43.2876 49.4545V54.6539C52.2683 52.8429 56.9282 47.0118 56.9282 37.0975Z" fill="white"/>
</svg>
