<svg width="150" height="56" viewBox="0 0 150 56" fill="none" xmlns="http://www.w3.org/2000/svg">
<path d="M149.553 28.0054H0V56H149.553V28.0054Z" fill="#27282C"/>
<path d="M149.553 0H0V28.0027H149.553V0Z" fill="#FFDB5A"/>
<path d="M17.374 23.4545C22.0458 23.4545 25.6766 20.8139 26.2606 15.9643H21.1825C20.8017 17.9955 19.329 19.1127 17.374 19.1127C14.708 19.1127 13.3877 17.2084 13.3877 14.0092C13.3877 10.8354 14.708 8.90575 17.374 8.90575C19.2275 8.90575 20.6239 9.89598 21.1063 11.6987H26.2352C25.5751 7.12842 21.9442 4.56399 17.374 4.56399C11.5849 4.56399 8.10645 8.22021 8.10645 14.0092C8.10645 19.7982 11.7881 23.4545 17.374 23.4545Z" fill="#27282C"/>
<path d="M36.2324 23.3502C40.5995 23.3502 43.2909 20.6335 43.2909 16.4948C43.2909 12.3562 40.5995 9.6394 36.2324 9.6394C31.8652 9.6394 29.1738 12.3562 29.1738 16.4948C29.1738 20.6335 31.8652 23.3502 36.2324 23.3502ZM36.2324 19.694C34.7597 19.694 33.8711 18.7292 33.8711 16.4948C33.8711 14.2605 34.7597 13.2956 36.2324 13.2956C37.705 13.2956 38.5937 14.2605 38.5937 16.4948C38.5937 18.7292 37.705 19.694 36.2324 19.694Z" fill="#27282C"/>
<path d="M54.8369 9.74886C52.9326 9.74886 51.7646 10.6883 51.3076 12.5418V9.95198H46.7373V23.0534H51.4091V17.4675C51.4091 15.0301 52.5009 14.0144 54.5576 14.0144H55.7763V9.82503C55.497 9.77425 55.1923 9.74886 54.8369 9.74886Z" fill="#27282C"/>
<path d="M67.8466 9.6394C65.9423 9.6394 64.6474 10.5281 63.7588 11.6706V9.94409H59.1885V23.0456H63.8603V15.7839C63.8603 14.2097 64.8759 13.6003 65.9169 13.6003C67.2372 13.6003 67.6943 14.3366 67.6943 15.5554V23.0456H72.3661V14.5651C72.3661 11.1882 70.3349 9.6394 67.8466 9.6394Z" fill="#27282C"/>
<path d="M92.8094 9.94972L91.8192 13.5298C91.413 14.977 91.0321 16.4243 90.6766 17.8461C90.3466 16.3989 89.9911 14.9516 89.6102 13.5044L88.6708 9.94972H84.4306L83.4911 13.5044C83.1103 14.9516 82.7548 16.3989 82.4248 17.8461C82.0693 16.4243 81.6884 14.977 81.2822 13.5298L80.292 9.94972H75.29L79.5302 23.0512H84.456L85.7255 18.5317C86.0302 17.4653 86.2841 16.3989 86.538 15.3325C86.7919 16.3989 87.0712 17.4653 87.3759 18.5317L88.6454 23.0512H93.5712L97.8114 9.94972H92.8094Z" fill="#27282C"/>
<path d="M114.098 23.0455C113.742 22.5631 113.564 21.6999 113.564 20.6842V13.7527C113.564 11.1628 111.66 9.6394 107.394 9.6394C103.002 9.6394 100.996 11.2136 100.768 14.2605H105.389C105.516 13.1433 106.049 12.864 107.344 12.864C108.689 12.864 108.994 13.321 108.994 13.905C108.994 14.6159 108.486 14.8952 107.42 14.9968L105.312 15.1745C101.479 15.5046 100.082 16.9265 100.082 19.2624C100.082 21.9284 102.189 23.3502 104.906 23.3502C106.861 23.3502 108.258 22.7155 109.07 21.6999C109.096 22.2077 109.248 22.7155 109.4 23.0455H114.098ZM106.506 20.3542C105.465 20.3542 104.83 19.8717 104.83 19.0846C104.83 18.2975 105.338 17.8913 106.328 17.7897L107.826 17.6374C108.41 17.5612 108.766 17.4343 108.994 17.1296V17.8913C108.994 19.7448 107.877 20.3542 106.506 20.3542Z" fill="#27282C"/>
<path d="M122.181 23.1708C122.815 23.1708 123.45 23.12 124.06 23.0438V19.6415H123.222C122.435 19.6415 121.952 19.5653 121.952 18.4735V4.96584H117.28V19.0321C117.28 21.952 118.651 23.1708 122.181 23.1708Z" fill="#27282C"/>
<path d="M132.148 23.1708C132.783 23.1708 133.418 23.12 134.027 23.0438V19.6415H133.189C132.402 19.6415 131.92 19.5653 131.92 18.4735V4.96584H127.248V19.0321C127.248 21.952 128.619 23.1708 132.148 23.1708Z" fill="#27282C"/>
<path d="M21.1991 51.0127H26.5819L19.9296 32.9347H13.8359L7.41211 51.0127H12.5918L13.3535 48.6514H20.4374L21.1991 51.0127ZM14.6738 44.4619L15.9941 40.2979C16.2988 39.3585 16.5781 38.3936 16.8573 37.4288C17.1113 38.3936 17.4159 39.3585 17.7206 40.2979L19.0663 44.4619H14.6738Z" fill="white"/>
<path d="M37.6708 32.9347V39.3077C36.8837 38.2667 35.7158 37.6065 34.0654 37.6065C30.5361 37.6065 28.4795 40.3233 28.4795 44.4619C28.4795 48.6006 30.5361 51.3174 34.0654 51.3174C35.8173 51.3174 37.0107 50.581 37.7978 49.4385V51.0127H42.3427V32.9347H37.6708ZM35.4619 47.6611C33.9892 47.6611 33.1767 46.7979 33.1767 44.5635C33.1767 42.3292 33.9892 41.2628 35.4619 41.2628C36.9345 41.2628 37.747 42.2276 37.747 44.4619C37.747 46.6963 36.9345 47.6611 35.4619 47.6611Z" fill="white"/>
<path d="M55.0321 37.9186L54.8798 38.4772C54.1181 41.2955 53.331 44.2662 52.5693 47.1353C51.833 44.2662 51.0459 41.2955 50.2841 38.4772L50.1318 37.9186H45.1299L49.624 51.02H55.3114L59.8055 37.9186H55.0321Z" fill="white"/>
<path d="M68.7656 51.3192C73.1327 51.3192 75.8241 48.6024 75.8241 44.4638C75.8241 40.3251 73.1327 37.6083 68.7656 37.6083C64.3984 37.6083 61.707 40.3251 61.707 44.4638C61.707 48.6024 64.3984 51.3192 68.7656 51.3192ZM68.7656 47.6629C67.2929 47.6629 66.4043 46.6981 66.4043 44.4638C66.4043 42.2294 67.2929 41.2646 68.7656 41.2646C70.2382 41.2646 71.1269 42.2294 71.1269 44.4638C71.1269 46.6981 70.2382 47.6629 68.7656 47.6629Z" fill="white"/>
<path d="M85.7402 51.3192C89.5995 51.3192 92.2909 49.1356 92.494 45.6317H87.9238C87.7968 47.0028 86.9335 47.5614 85.7402 47.5614C84.2675 47.5614 83.455 46.6473 83.455 44.4638C83.455 42.2802 84.2675 41.3407 85.7402 41.3407C86.832 41.3407 87.6191 41.8485 87.8222 43.0165H92.4179C92.0878 39.6904 89.498 37.6083 85.7402 37.6083C81.4492 37.6083 78.7578 40.3251 78.7578 44.4638C78.7578 48.6024 81.4492 51.3192 85.7402 51.3192Z" fill="white"/>
<path d="M109.314 51.0145C108.959 50.5321 108.781 49.6688 108.781 48.6532V41.7216C108.781 39.1318 106.877 37.6083 102.611 37.6083C98.2187 37.6083 96.2129 39.1825 95.9844 42.2294H100.605C100.732 41.1122 101.266 40.8329 102.56 40.8329C103.906 40.8329 104.211 41.2899 104.211 41.8739C104.211 42.5849 103.703 42.8642 102.637 42.9657L100.529 43.1435C96.6953 43.4735 95.2988 44.8954 95.2988 47.2313C95.2988 49.8973 97.4062 51.3192 100.123 51.3192C102.078 51.3192 103.475 50.6844 104.287 49.6688C104.312 50.1766 104.465 50.6844 104.617 51.0145H109.314ZM101.723 48.3231C100.682 48.3231 100.047 47.8407 100.047 47.0536C100.047 46.2665 100.555 45.8602 101.545 45.7587L103.043 45.6063C103.627 45.5302 103.982 45.4032 104.211 45.0985V45.8602C104.211 47.7137 103.094 48.3231 101.723 48.3231Z" fill="white"/>
<path d="M118.821 51.3192C122.681 51.3192 125.372 49.1356 125.575 45.6317H121.005C120.878 47.0028 120.015 47.5614 118.821 47.5614C117.349 47.5614 116.536 46.6473 116.536 44.4638C116.536 42.2802 117.349 41.3407 118.821 41.3407C119.913 41.3407 120.7 41.8485 120.903 43.0165H125.499C125.169 39.6904 122.579 37.6083 118.821 37.6083C114.53 37.6083 111.839 40.3251 111.839 44.4638C111.839 48.6024 114.53 51.3192 118.821 51.3192Z" fill="white"/>
<path d="M137.369 37.9186L137.115 38.7057C136.557 40.4322 135.693 42.9713 134.779 45.5611C134.094 43.149 133.357 40.7115 132.596 38.3248L132.469 37.9186H127.467L132.494 50.4868L130.26 55.9966H134.728L137.141 49.9536L142.142 37.9186H137.369Z" fill="white"/>
</svg>
