<svg width="214" height="80" viewBox="0 0 214 80" fill="none" xmlns="http://www.w3.org/2000/svg">
<path d="M213.646 40.0078H0V80.0002H213.646V40.0078Z" fill="#27282C"/>
<path d="M213.646 0H0V40.004H213.646V0Z" fill="white"/>
<path d="M24.8193 33.5065C31.4934 33.5065 36.6803 29.7342 37.5145 22.8062H30.2601C29.7161 25.708 27.6123 27.3039 24.8193 27.3039C21.0108 27.3039 19.1246 24.5835 19.1246 20.0132C19.1246 15.4792 21.0108 12.7226 24.8193 12.7226C27.4672 12.7226 29.4622 14.1372 30.1513 16.7125H37.4783C36.5352 10.1835 31.3483 6.52002 24.8193 6.52002C16.5493 6.52002 11.5801 11.7432 11.5801 20.0132C11.5801 28.2833 16.8395 33.5065 24.8193 33.5065Z" fill="#27282C"/>
<path d="M51.7604 33.3574C57.9992 33.3574 61.844 29.4763 61.844 23.564C61.844 17.6516 57.9992 13.7705 51.7604 13.7705C45.5216 13.7705 41.6768 17.6516 41.6768 23.564C41.6768 29.4763 45.5216 33.3574 51.7604 33.3574ZM51.7604 28.1343C49.6566 28.1343 48.3871 26.7559 48.3871 23.564C48.3871 20.372 49.6566 18.9937 51.7604 18.9937C53.8641 18.9937 55.1337 20.372 55.1337 23.564C55.1337 26.7559 53.8641 28.1343 51.7604 28.1343Z" fill="#27282C"/>
<path d="M78.3374 13.9268C75.617 13.9268 73.9485 15.2688 73.2956 17.9167V14.2169H66.7666V32.9333H73.4406V24.9535C73.4406 21.4714 75.0003 20.0205 77.9384 20.0205H79.6794V14.0356C79.2804 13.963 78.8452 13.9268 78.3374 13.9268Z" fill="#27282C"/>
<path d="M96.9225 13.7705C94.2021 13.7705 92.3522 15.04 91.0827 16.6723V14.2058H84.5537V32.9222H91.2278V22.5484C91.2278 20.2995 92.6786 19.429 94.1658 19.429C96.0519 19.429 96.7048 20.4808 96.7048 22.2219V32.9222H103.379V20.8073C103.379 15.9831 100.477 13.7705 96.9225 13.7705Z" fill="#27282C"/>
<path d="M132.584 14.2139L131.17 19.3282C130.589 21.3957 130.045 23.4633 129.537 25.4945C129.066 23.427 128.558 21.3595 128.014 19.292L126.672 14.2139H120.615L119.272 19.292C118.728 21.3595 118.221 23.427 117.749 25.4945C117.241 23.4633 116.697 21.3957 116.117 19.3282L114.702 14.2139H107.557L113.614 32.9303H120.651L122.464 26.4738C122.9 24.9504 123.262 23.427 123.625 21.9036C123.988 23.427 124.387 24.9504 124.822 26.4738L126.636 32.9303H133.672L139.73 14.2139H132.584Z" fill="#27282C"/>
<path d="M162.997 32.9222C162.489 32.233 162.235 30.9998 162.235 29.5489V19.6466C162.235 15.9468 159.515 13.7705 153.421 13.7705C147.146 13.7705 144.28 16.0194 143.954 20.372H150.555C150.737 18.7761 151.499 18.3771 153.348 18.3771C155.271 18.3771 155.706 19.03 155.706 19.8642C155.706 20.8798 154.981 21.2788 153.457 21.4239L150.447 21.6778C144.97 22.1494 142.975 24.1806 142.975 27.5176C142.975 31.3262 145.985 33.3574 149.866 33.3574C152.659 33.3574 154.654 32.4506 155.815 30.9998C155.851 31.7252 156.069 32.4506 156.286 32.9222H162.997ZM152.151 29.0773C150.664 29.0773 149.757 28.3882 149.757 27.2637C149.757 26.1393 150.483 25.5589 151.898 25.4139L154.038 25.1962C154.872 25.0874 155.38 24.906 155.706 24.4708V25.5589C155.706 28.2068 154.11 29.0773 152.151 29.0773Z" fill="#27282C"/>
<path d="M174.542 33.1009C175.449 33.1009 176.356 33.0283 177.227 32.9195V28.059H176.03C174.905 28.059 174.216 27.9502 174.216 26.3905V7.09375H167.542V27.1885C167.542 31.3598 169.501 33.1009 174.542 33.1009Z" fill="#27282C"/>
<path d="M188.783 33.1009C189.69 33.1009 190.596 33.0283 191.467 32.9195V28.059H190.27C189.145 28.059 188.456 27.9502 188.456 26.3905V7.09375H181.782V27.1885C181.782 31.3598 183.741 33.1009 188.783 33.1009Z" fill="#27282C"/>
<path d="M30.2845 72.8751H37.9742L28.4709 47.0493H19.7657L10.5889 72.8751H17.9883L19.0765 69.5018H29.1964L30.2845 72.8751ZM20.9627 63.5169L22.8488 57.5682C23.2841 56.2262 23.683 54.8478 24.082 53.4695C24.4448 54.8478 24.88 56.2262 25.3153 57.5682L27.2377 63.5169H20.9627Z" fill="white"/>
<path d="M53.816 47.0493V56.1536C52.6916 54.6665 51.0231 53.7234 48.6654 53.7234C43.6236 53.7234 40.6855 57.6045 40.6855 63.5169C40.6855 69.4292 43.6236 73.3103 48.6654 73.3103C51.1681 73.3103 52.8729 72.2584 53.9974 70.6262V72.8751H60.49V47.0493H53.816ZM50.6603 68.0871C48.5566 68.0871 47.3959 66.8539 47.3959 63.6619C47.3959 60.47 48.5566 58.9466 50.6603 58.9466C52.7641 58.9466 53.9248 60.3249 53.9248 63.5169C53.9248 66.7088 52.7641 68.0871 50.6603 68.0871Z" fill="white"/>
<path d="M78.6178 54.1694L78.4001 54.9674C77.312 58.9936 76.1875 63.2375 75.0994 67.3362C74.0475 63.2375 72.923 58.9936 71.8349 54.9674L71.6173 54.1694H64.4717L70.8918 72.8858H79.0167L85.4369 54.1694H78.6178Z" fill="white"/>
<path d="M98.236 73.313C104.475 73.313 108.32 69.4319 108.32 63.5195C108.32 57.6072 104.475 53.7261 98.236 53.7261C91.9972 53.7261 88.1523 57.6072 88.1523 63.5195C88.1523 69.4319 91.9972 73.313 98.236 73.313ZM98.236 68.0898C96.1322 68.0898 94.8627 66.7115 94.8627 63.5195C94.8627 60.3276 96.1322 58.9493 98.236 58.9493C100.34 58.9493 101.609 60.3276 101.609 63.5195C101.609 66.7115 100.34 68.0898 98.236 68.0898Z" fill="white"/>
<path d="M122.487 73.313C128 73.313 131.845 70.1936 132.135 65.1881H125.606C125.425 67.1468 124.191 67.9447 122.487 67.9447C120.383 67.9447 119.222 66.6389 119.222 63.5195C119.222 60.4001 120.383 59.0581 122.487 59.0581C124.046 59.0581 125.171 59.7835 125.461 61.452H132.026C131.555 56.7004 127.855 53.7261 122.487 53.7261C116.357 53.7261 112.512 57.6072 112.512 63.5195C112.512 69.4319 116.357 73.313 122.487 73.313Z" fill="white"/>
<path d="M156.163 72.8777C155.655 72.1886 155.401 70.9553 155.401 69.5044V59.6022C155.401 55.9024 152.681 53.7261 146.587 53.7261C140.312 53.7261 137.446 55.9749 137.12 60.3276H143.721C143.903 58.7316 144.665 58.3326 146.514 58.3326C148.437 58.3326 148.872 58.9855 148.872 59.8198C148.872 60.8354 148.147 61.2344 146.623 61.3795L143.613 61.6334C138.136 62.1049 136.141 64.1362 136.141 67.4732C136.141 71.2818 139.151 73.313 143.032 73.313C145.825 73.313 147.82 72.4062 148.981 70.9553C149.017 71.6808 149.235 72.4062 149.452 72.8777H156.163ZM145.317 69.0329C143.83 69.0329 142.923 68.3437 142.923 67.2193C142.923 66.0949 143.649 65.5145 145.064 65.3694L147.204 65.1518C148.038 65.043 148.546 64.8616 148.872 64.4263V65.5145C148.872 68.1624 147.276 69.0329 145.317 69.0329Z" fill="white"/>
<path d="M169.745 73.313C175.259 73.313 179.103 70.1936 179.394 65.1881H172.865C172.683 67.1468 171.45 67.9447 169.745 67.9447C167.642 67.9447 166.481 66.6389 166.481 63.5195C166.481 60.4001 167.642 59.0581 169.745 59.0581C171.305 59.0581 172.429 59.7835 172.72 61.452H179.285C178.813 56.7004 175.114 53.7261 169.745 53.7261C163.615 53.7261 159.771 57.6072 159.771 63.5195C159.771 69.4319 163.615 73.313 169.745 73.313Z" fill="white"/>
<path d="M196.241 54.1694L195.878 55.2939C195.08 57.7604 193.847 61.3876 192.541 65.0873C191.562 61.6415 190.51 58.1594 189.422 54.7498L189.24 54.1694H182.095L189.277 72.1241L186.085 79.9952H192.469L195.914 71.3624L203.06 54.1694H196.241Z" fill="white"/>
</svg>
